<?xml version="1.0" encoding="UTF-8"?>
<svg width="32px" height="32px" viewBox="0 0 32 32" version="1.1" xmlns="http://www.w3.org/2000/svg" xmlns:xlink="http://www.w3.org/1999/xlink">
    <!-- Generator: Sketch 59.1 (86144) - https://sketch.com -->
    <title>户籍库32</title>
    <desc>Created with Sketch.</desc>
    <g id="页面-2" stroke="none" stroke-width="1" fill="none" fill-rule="evenodd">
        <g id="关系图谱多人关系" transform="translate(-440.000000, -710.000000)">
            <g id="户籍库32" transform="translate(440.000000, 710.000000)">
                <circle id="椭圆形" fill="#30DC72" cx="16" cy="16" r="16"></circle>
                <path d="M16,6.08 C20.2347396,6.08 23.68,9.49554492 23.68,13.693816 C23.68,15.47276 23.0613871,17.111006 22.0262787,18.4085886 L22.0262787,18.4085886 L16,25.92 L9.97372128,18.4085886 C8.93861289,17.111006 8.32,15.47276 8.32,13.693816 C8.32,9.49554492 11.7652604,6.08 16,6.08 Z M16.0713368,9.69413543 L11.9655298,13.7600378 L11.9655298,14.5183898 L13.2543377,14.5183898 L13.2543377,17.8259401 L15.3993043,17.8259401 L15.3993043,15.5325709 L16.7341544,15.5325709 L16.7341544,17.8259401 L18.8791102,17.8259401 L18.8791102,14.5183898 L20.167972,14.5183898 L20.167972,13.7600378 L16.0713368,9.69413543 Z" id="形状结合" fill="#FFFFFF" fill-rule="nonzero"></path>
            </g>
        </g>
    </g>
</svg>