<?xml version="1.0" encoding="UTF-8"?>
<svg width="32px" height="32px" viewBox="0 0 32 32" version="1.1" xmlns="http://www.w3.org/2000/svg" xmlns:xlink="http://www.w3.org/1999/xlink">
    <!-- Generator: Sketch 59.1 (86144) - https://sketch.com -->
    <title>WZ人员库32</title>
    <desc>Created with Sketch.</desc>
    <g id="页面-2" stroke="none" stroke-width="1" fill="none" fill-rule="evenodd">
        <g id="关系图谱多人关系" transform="translate(-440.000000, -666.000000)">
            <g id="WZ人员库32" transform="translate(440.000000, 666.000000)">
                <circle id="椭圆形" fill="#FF9F40" cx="16" cy="16" r="16"></circle>
                <path d="M22.048,6.08 C22.5958665,6.08 23.04,6.52413353 23.04,7.072 L23.04,24.928 C23.04,25.4758665 22.5958665,25.92 22.048,25.92 L10.272,25.92 C9.72413353,25.92 9.28,25.4758665 9.28,24.928 L9.28,7.072 C9.28,6.52413353 9.72413353,6.08 10.272,6.08 L22.048,6.08 Z M16.16,13.024 C13.988732,13.024 12.2285714,14.8005341 12.2285714,16.992 C12.2285714,19.1834659 13.988732,20.96 16.16,20.96 C18.331268,20.96 20.0914286,19.1834659 20.0914286,16.992 C20.0914286,14.8005341 18.331268,13.024 16.16,13.024 Z M13.2522729,17.488458 L14.2564732,17.489014 C14.4345388,18.1857482 14.9782051,18.7341951 15.6686749,18.9135222 L15.6686749,18.9135222 L15.6692263,19.9269634 C14.4343506,19.7181528 13.4596183,18.7346637 13.2522729,17.488458 L13.2522729,17.488458 Z M19.0677271,17.488458 C18.8604305,18.7343701 17.8861086,19.7176895 16.6516463,19.9268157 L16.6516463,19.9268157 L16.6513251,18.9135222 C17.3421236,18.7341097 17.8859787,18.185226 18.0637808,17.4880191 L18.0637808,17.4880191 Z M16.16,16 C16.702817,16 17.1428571,16.4441335 17.1428571,16.992 C17.1428571,17.5398665 16.702817,17.984 16.16,17.984 C15.617183,17.984 15.1771429,17.5398665 15.1771429,16.992 C15.1771429,16.4441335 15.617183,16 16.16,16 Z M15.6686749,15.0704778 C14.9778764,15.2498903 14.4340213,15.798774 14.2562192,16.4959809 L14.2562192,16.4959809 L13.2521076,16.4965366 C13.4590998,15.2498596 14.4340221,14.2659027 15.6692263,14.0570366 L15.6692263,14.0570366 Z M16.6516463,14.0571843 C17.886437,14.2663662 18.860949,15.2501532 19.0678924,16.4965366 L19.0678924,16.4965366 L18.0635268,16.494986 C17.8854612,15.7982518 17.3417949,15.2498049 16.6513251,15.0704778 L16.6513251,15.0704778 Z M16.16,8.064 C15.617183,8.064 15.1771429,8.50813353 15.1771429,9.056 C15.1771429,9.60386647 15.617183,10.048 16.16,10.048 C16.702817,10.048 17.1428571,9.60386647 17.1428571,9.056 C17.1428571,8.50813353 16.702817,8.064 16.16,8.064 Z" id="形状结合" fill="#FFFFFF"></path>
            </g>
        </g>
    </g>
</svg>